<svg width="388" height="354" viewBox="0 0 388 354" fill="none" xmlns="http://www.w3.org/2000/svg">
<rect width="387" height="354" rx="38" fill="#101010"/>
<g opacity="0.5">
<g opacity="0.5">
<path opacity="0.5" d="M160.128 247.828L140.442 290L110.79 227.895H129.323L139.948 205.491L160.128 247.828Z" fill="white"/>
<path opacity="0.5" d="M143.816 97.599C130.143 97.599 117.294 103.282 108.151 112.837C104.445 116.708 101.397 121.156 99.091 126.098L97.7731 128.981L91.5132 142.489L86.983 152.208L80.8879 164.975L77.8403 171.565L59.9666 209.948L49.4237 232.351L28.5024 277.324H121.412C123.307 277.324 125.119 277.241 127.013 276.994L106.175 232.351H89.1246L97.6907 214.066L99.6675 209.948L106.751 194.792L117.624 171.565L120.671 164.975L125.119 155.503C125.613 154.515 126.107 153.526 126.766 152.538C130.885 146.36 137.886 142.489 145.464 142.489H176.269L165.808 164.975L149.17 200.558L169.021 243.059L174.045 232.351L184.506 209.865L205.262 164.975L215.723 142.489L236.644 97.5166H143.816V97.599Z" fill="white"/>
<path opacity="0.5" d="M276.021 155.494L271.573 164.966H356.164L335.242 209.939L324.782 232.343L315.886 251.369C308.473 267.184 292.659 277.315 275.197 277.315H179.569L200.49 232.343H270.749C279.48 232.343 287.387 227.318 291.094 219.329L295.542 209.857H211.033L231.954 164.884L242.415 142.398L251.311 123.371C258.724 107.557 274.538 97.4255 292 97.4255H387.628L366.707 142.48H296.448C287.717 142.48 279.727 147.587 276.021 155.494Z" fill="white"/>
</g>
</g>
<path d="M146.625 234.319L126.94 276.491L97.2876 214.387H115.82L126.446 192.065L146.625 234.319Z" fill="#E7F34B"/>
<path d="M130.314 84.0911C116.641 84.0911 103.792 89.7744 94.6489 99.329C90.9424 103.2 87.8948 107.648 85.5885 112.59L84.1883 115.555L77.9284 129.063L73.3982 138.783L67.4678 151.55L64.4202 158.139L46.5466 196.522L36.086 219.008L15 263.816H107.91C109.804 263.816 111.616 263.734 113.511 263.486L92.6721 218.843H75.6221L84.1883 200.558L86.1651 196.44L93.2486 181.284L103.956 158.057L107.004 151.467L111.452 141.995C111.946 141.007 112.44 140.018 113.099 139.03C117.217 132.852 124.219 128.981 131.796 128.981H162.602L152.141 151.467L135.503 187.05L155.353 229.551L160.378 218.843L170.838 196.357L191.76 151.385L202.22 128.899L223.224 84.0911H130.314Z" fill="#E7F34B"/>
<path d="M262.593 141.986L258.145 151.459H342.736L321.815 196.431L311.354 218.917L302.459 237.862C295.046 253.676 279.231 263.807 261.769 263.807H166.059L186.98 218.835H257.239C265.97 218.835 273.877 213.81 277.584 205.821L282.032 196.349H197.523L218.444 151.459L228.905 128.972L237.801 109.946C245.214 94.1311 261.028 84 278.49 84H374.118L353.197 128.972H282.938C274.207 129.055 266.217 134.079 262.593 141.986Z" fill="#E7F34B"/>
</svg>
