<svg width="373" height="206" viewBox="0 0 373 206" fill="none" xmlns="http://www.w3.org/2000/svg">
<g opacity="0.5">
<g opacity="0.5">
<path opacity="0.5" d="M145.128 163.828L125.442 206L95.79 143.895H114.323L124.948 121.491L145.128 163.828Z" fill="white"/>
<path opacity="0.5" d="M128.816 13.599C115.143 13.599 102.294 19.2823 93.1513 28.8369C89.4448 32.7081 86.3972 37.1559 84.091 42.098L82.7731 44.9808L76.5132 58.489L71.983 68.2083L65.8879 80.9752L62.8403 87.5645L44.9666 125.948L34.4237 148.351L13.5024 193.324H106.412C108.307 193.324 110.119 193.241 112.013 192.994L91.1745 148.351H74.1246L82.6907 130.066L84.6675 125.948L91.7511 110.792L102.624 87.5645L105.671 80.9752L110.119 71.503C110.613 70.5146 111.107 69.5262 111.766 68.5378C115.885 62.3602 122.886 58.489 130.464 58.489H161.269L150.808 80.9752L134.17 116.558L154.021 159.059L159.045 148.351L169.506 125.865L190.262 80.9752L200.723 58.489L221.644 13.5166H128.816V13.599Z" fill="white"/>
<path opacity="0.5" d="M261.021 71.4943L256.573 80.9665H341.164L320.242 125.939L309.782 148.343L300.886 167.369C293.473 183.184 277.659 193.315 260.197 193.315H164.569L185.49 148.343H255.749C264.48 148.343 272.387 143.318 276.094 135.329L280.542 125.857H196.033L216.954 80.8841L227.415 58.3979L236.311 39.3711C243.724 23.5567 259.538 13.4255 277 13.4255H372.628L351.707 58.4803H281.448C272.717 58.4803 264.727 63.587 261.021 71.4943Z" fill="white"/>
</g>
</g>
<path d="M131.625 150.319L111.94 192.491L82.2876 130.387H100.82L111.446 108.065L131.625 150.319Z" fill="#E7F34B"/>
<path d="M115.314 0.0910645C101.641 0.0910645 88.7916 5.77439 79.6489 15.329C75.9424 19.2002 72.8948 23.648 70.5885 28.59L69.1883 31.5553L62.9284 45.0634L58.3982 54.7828L52.4678 67.5496L49.4202 74.139L31.5466 112.522L21.086 135.008L0 179.816H92.91C94.8044 179.816 96.6165 179.734 98.5109 179.486L77.6721 134.843H60.6221L69.1883 116.558L71.1651 112.44L78.2486 97.2841L88.9564 74.0566L92.0039 67.4673L96.4518 57.9951C96.946 57.0067 97.4402 56.0183 98.0991 55.0299C102.217 48.8523 109.219 44.9811 116.796 44.9811H147.602L137.141 67.4673L120.503 103.05L140.353 145.551L145.378 134.843L155.838 112.357L176.76 67.3849L187.22 44.8987L208.224 0.0910645H115.314Z" fill="#E7F34B"/>
<path d="M247.593 57.9864L243.145 67.4586H327.736L306.815 112.431L296.354 134.917L287.459 153.862C280.046 169.676 264.231 179.807 246.769 179.807H151.059L171.98 134.835H242.239C250.97 134.835 258.877 129.81 262.584 121.821L267.032 112.349H182.523L203.444 67.4586L213.905 44.9724L222.801 25.9456C230.214 10.1311 246.028 -1.22736e-09 263.49 -1.22736e-09H359.118L338.197 44.9724H267.938C259.207 45.0548 251.217 50.0791 247.593 57.9864Z" fill="#E7F34B"/>
</svg>
