<svg width="345" height="71" viewBox="0 0 345 71" fill="none" xmlns="http://www.w3.org/2000/svg">
<path d="M0.157532 23.8761L2.36308 11.9607C2.73067 10.0125 3.57087 8.29093 4.8837 6.70523C6.19652 5.16484 7.77191 3.89628 9.71489 2.94487C11.6054 1.99345 13.7059 1.26856 15.9114 0.770196C18.117 0.271834 20.4275 0 22.7381 0C24.6286 0 26.3615 0.135917 28.0944 0.453056C29.7748 0.770196 31.3502 1.26856 32.8206 1.90284C34.2909 2.53712 35.4987 3.35262 36.4965 4.25873C37.4942 5.16484 38.2294 6.29748 38.6495 7.61135C38.9121 8.42685 39.0696 9.28765 39.0696 10.1938C39.0696 10.7374 39.0171 11.3264 38.9121 11.9154L36.759 23.8308C36.3389 26.096 35.2362 28.1348 33.3982 29.9923L36.3389 32.756L29.4072 37.3771L26.2565 34.1604C23.1582 35.2478 19.9024 35.7914 16.3315 35.7914C14.4411 35.7914 12.7081 35.6555 10.9752 35.3384C9.24229 35.0213 7.71941 34.5229 6.24905 33.8886C4.77869 33.2543 3.57089 32.4388 2.57315 31.5327C1.5754 30.5813 0.8402 29.494 0.420097 28.1801C0.157532 27.3646 0 26.5038 0 25.643C0 25.054 0.0525065 24.5103 0.157532 23.8761ZM11.3428 23.5136C11.2903 23.8308 11.2903 24.1479 11.2903 24.4197C11.2903 24.9634 11.4478 25.5071 11.8154 25.9601C12.2355 26.5944 12.8657 27.0928 13.7059 27.4099C14.4936 27.727 15.3863 27.9083 16.384 27.9989C16.5416 27.9989 16.7516 28.0442 16.9617 28.0442C17.7494 28.0442 18.5371 27.9083 19.3247 27.6364L16.2265 24.6916L23.1057 20.4328L25.7313 22.9246L27.7794 12.006C27.8319 11.8248 27.8319 11.6435 27.8319 11.4623C27.8319 10.4656 27.3067 9.6501 26.204 9.06112C24.9437 8.38154 23.3683 8.0191 21.4778 8.0191C20.2175 8.0191 19.0097 8.15501 17.9069 8.47215C16.7516 8.74399 15.8064 9.19704 14.9662 9.83132C14.126 10.4656 13.6534 11.1905 13.4958 12.0513L11.3428 23.5136Z" fill="#E7F34B"/>
<path d="M42.273 23.4178L46.4223 0H57.8594L53.7101 23.603C53.6569 23.8344 53.6569 24.0195 53.6569 24.2509C53.6569 25.3153 54.1357 26.1484 55.0932 26.75C56.2103 27.4905 57.6466 27.8608 59.402 27.8608C61.2107 27.8608 62.7534 27.4905 64.1365 26.75C65.5196 26.0095 66.3175 24.9451 66.5303 23.603L70.7328 0H82.1167L77.9674 23.603C77.7014 25.2228 77.0631 26.7037 76.1587 28.0922C75.2544 29.4806 74.1373 30.6376 72.8606 31.6095C71.5307 32.5813 70.0412 33.4144 68.3922 34.1086C66.7431 34.8028 65.0408 35.3119 63.2854 35.6358C61.5299 35.9598 59.7212 36.1449 57.9126 36.1449C55.6251 36.1449 53.4973 35.8672 51.5291 35.3582C49.5076 34.8028 47.8054 34.0623 46.2627 33.0441C44.7732 32.026 43.6561 30.7301 42.9113 29.1103C42.4326 27.9996 42.1666 26.8426 42.1666 25.5467C42.0602 24.8062 42.1134 24.112 42.273 23.4178Z" fill="#E7F34B"/>
<path d="M82.1161 35.3234L88.1063 0H98.9605L92.9702 35.3234H82.1161Z" fill="#E7F34B"/>
<path d="M101.22 24.1271L103.321 12.0178C103.628 10.0986 104.397 8.36223 105.626 6.80859C106.856 5.25495 108.341 3.97549 110.134 3.01589C111.927 2.05629 113.874 1.27947 115.974 0.776819C118.075 0.274172 120.227 0 122.429 0C123.556 0 124.632 0.0913905 125.657 0.228476C126.682 0.365562 127.757 0.639735 128.833 1.05099C129.909 1.41655 130.934 1.9192 131.804 2.51324C132.675 3.10728 133.546 3.8841 134.315 4.8437C135.083 5.8033 135.698 6.85429 136.159 8.08806L126.784 11.0126C126.323 10.0529 125.554 9.36752 124.427 8.91057C123.3 8.45362 122.071 8.17945 120.688 8.17945C119.048 8.22514 117.614 8.5907 116.333 9.27613C115.052 9.96156 114.284 10.8755 114.079 12.0178L112.03 23.8986C111.979 24.0814 111.979 24.2642 111.979 24.4469C111.979 25.3609 112.44 26.1377 113.362 26.7774C114.438 27.5085 115.77 27.8741 117.358 27.8741C118.69 27.8741 119.97 27.5999 121.2 27.0516C122.429 26.5032 123.403 25.7264 124.069 24.6754L132.932 28.2853C128.423 33.5403 122.788 36.1449 116.077 36.1449C114.335 36.1449 112.696 36.0078 111.159 35.688C109.622 35.3681 108.136 34.8655 106.804 34.2257C105.472 33.586 104.345 32.7635 103.423 31.8496C102.45 30.9357 101.784 29.7933 101.425 28.4681C101.169 27.6456 101.067 26.8231 101.067 25.9092C101.067 25.3152 101.118 24.7211 101.22 24.1271Z" fill="#E7F34B"/>
<path d="M136.158 35.3234L142.278 0H153.471L151.222 13.0743L165.397 0.0458757H179.205L158.806 17.3865L172.981 35.3234H159.016L149.81 22.7079L149.392 23.0749L147.247 35.3234H136.158Z" fill="#E7F34B"/>
<path d="M173.123 29.7852L181.025 24.5236C181.961 25.576 183.209 26.4453 184.82 27.0401C186.432 27.6349 188.096 27.9551 189.811 27.9551C191.371 27.9551 192.723 27.7264 193.814 27.2688C194.906 26.8113 195.582 26.125 195.79 25.2557C195.894 24.7524 195.79 24.2491 195.426 23.8374C195.062 23.4256 194.542 23.0595 193.814 22.785C193.086 22.5105 192.359 22.2817 191.579 22.1445C190.799 21.9615 189.915 21.8242 188.927 21.7327C187.16 21.5039 185.548 21.0464 184.04 20.4059C182.533 19.7196 181.181 18.896 180.089 17.8895C178.946 16.8829 178.166 15.6933 177.698 14.2292C177.438 13.4057 177.282 12.5821 177.282 11.667C177.282 11.0265 177.386 10.3402 177.542 9.6539C177.958 7.91528 178.686 6.40543 179.829 5.12434C180.973 3.84326 182.325 2.83669 183.988 2.10464C185.6 1.37259 187.368 0.823556 189.239 0.503285C191.111 0.13726 193.086 0 195.166 0C198.077 0 200.677 0.411778 203.016 1.23533C205.356 2.05889 207.383 3.52299 209.151 5.58188L201.093 10.0657C200.209 9.24212 199.117 8.64733 197.817 8.1898C196.518 7.77802 195.166 7.54926 193.814 7.5035C193.71 7.5035 193.606 7.5035 193.502 7.5035C192.151 7.5035 191.007 7.68652 190.123 8.09829C189.135 8.55583 188.563 9.19637 188.459 10.0657C188.459 10.2029 188.407 10.3402 188.407 10.4317C188.407 11.2095 188.823 11.85 189.603 12.3076C190.487 12.8566 191.891 13.2684 193.71 13.6344C194.594 13.7717 195.426 13.9089 196.206 14.0462C196.986 14.1835 197.765 14.4122 198.597 14.641C199.429 14.8698 200.157 15.0985 200.833 15.373C201.509 15.6476 202.184 15.9678 202.808 16.3338C203.484 16.6999 204.056 17.1116 204.524 17.5692C204.992 18.0267 205.408 18.53 205.824 19.079C206.188 19.6738 206.448 20.2686 206.656 20.9549C206.864 21.6412 206.915 22.3733 206.915 23.2426C206.915 24.0661 206.812 24.9812 206.604 25.942C205.824 29.282 203.796 31.7984 200.469 33.537C197.142 35.2756 193.034 36.1449 188.2 36.1449C185.392 36.1449 182.585 35.5959 179.777 34.4978C176.97 33.3997 174.682 31.7984 173.123 29.7852Z" fill="#E7F34B"/>
<path d="M210.087 35.3234L216.216 0H227.426L225.121 13.3495H237.799L240.104 0H251.262L245.133 35.3234H233.922L236.227 22.0198H223.55L221.245 35.3234H210.087Z" fill="#E7F34B"/>
<path d="M252.198 35.3234L258.188 0H269.042L263.052 35.3234H252.198Z" fill="#E7F34B"/>
<path d="M269.51 35.3234L275.679 0H306.474L304.998 8.44093H285.487L284.38 14.8175H301.412L299.988 23.1667H282.903L280.794 35.3234H269.51Z" fill="#E7F34B"/>
<path d="M307.644 8.16568L309.114 0H344.14L342.67 8.16568H330.802L326.128 35.3234H314.89L319.564 8.16568H307.644Z" fill="#E7F34B"/>
<path d="M42.1113 57.9146H43.8608L49.4807 64.7435L55.1005 57.9146H56.8501V70.4421H55.1005V60.2693L49.4807 67.0041H49.4277L43.8078 60.3164V70.4421H42.1113V57.9146Z" fill="#E7F34B"/>
<path d="M69.4832 64.3837C69.4832 60.9616 72.5657 57.9146 77.0866 57.9146C81.6075 57.9146 84.69 60.9147 84.69 64.3837C84.69 67.8057 81.6075 70.8528 77.0866 70.8528C72.5657 70.8528 69.4832 67.8526 69.4832 64.3837ZM82.9946 64.3837C82.9946 61.571 80.5287 59.2271 77.138 59.2271C73.7473 59.2271 71.2813 61.5241 71.2813 64.3837C71.2813 67.1963 73.7473 69.5402 77.138 69.5402C80.5287 69.5402 82.9946 67.2432 82.9946 64.3837Z" fill="#E7F34B"/>
<path d="M99.9603 59.2714H94.9837V57.9146H106.681V59.2714H101.705V70.8528H100.012V59.2714H99.9603Z" fill="#E7F34B"/>
<path d="M117.209 64.3837C117.209 60.9616 120.386 57.9146 125.046 57.9146C129.706 57.9146 132.884 60.9147 132.884 64.3837C132.884 67.8057 129.706 70.8528 125.046 70.8528C120.386 70.8528 117.209 67.8526 117.209 64.3837ZM131.083 64.3837C131.083 61.571 128.541 59.2271 125.046 59.2271C121.551 59.2271 119.009 61.5241 119.009 64.3837C119.009 67.1963 121.551 69.5402 125.046 69.5402C128.594 69.5402 131.083 67.2432 131.083 64.3837Z" fill="#E7F34B"/>
<path d="M159.32 68.8676L160.303 67.8289C161.777 69.0092 163.202 69.6229 165.217 69.6229C167.133 69.6229 168.411 68.7259 168.411 67.4512C168.411 66.2709 167.674 65.61 164.725 65.0434C161.433 64.4297 159.959 63.4855 159.959 61.361C159.959 59.3781 161.924 57.9146 164.627 57.9146C166.691 57.9146 168.214 58.4339 169.639 59.4725L168.706 60.5584C167.379 59.6142 166.052 59.1893 164.578 59.1893C162.711 59.1893 161.531 60.0863 161.531 61.2665C161.531 62.4468 162.268 63.1078 165.413 63.7215C168.607 64.3353 170.082 65.3739 170.082 67.3096C170.082 69.4813 168.067 70.8504 165.217 70.8504C162.907 70.8976 161.04 70.2367 159.32 68.8676Z" fill="#E7F34B"/>
<path d="M181.779 64.4069C181.779 60.8784 185.102 57.9146 189.786 57.9146C192.673 57.9146 194.307 58.7614 195.887 59.9375L194.688 60.9255C193.381 59.9375 191.856 59.1848 189.732 59.1848C186.246 59.1848 183.631 61.443 183.631 64.3599C183.631 67.2767 186.3 69.5349 189.732 69.5349C191.911 69.5349 193.327 68.8763 194.852 67.7472L196.05 68.7351C194.416 70.0524 192.619 70.8522 189.732 70.8522C185.156 70.8993 181.779 68.0295 181.779 64.4069Z" fill="#E7F34B"/>
<path d="M207.748 57.9146H209.43V63.4719H217.996V57.9146H219.679V70.4421H217.996V64.7905H209.43V70.4421H207.748V57.9146Z" fill="#E7F34B"/>
<path d="M232.079 64.3837C232.079 60.9616 235.161 57.9146 239.682 57.9146C244.203 57.9146 247.285 60.9147 247.285 64.3837C247.285 67.8057 244.203 70.8528 239.682 70.8528C235.161 70.8528 232.079 67.8526 232.079 64.3837ZM245.539 64.3837C245.539 61.571 243.073 59.2271 239.682 59.2271C236.291 59.2271 233.825 61.5241 233.825 64.3837C233.825 67.1963 236.291 69.5402 239.682 69.5402C243.073 69.5402 245.539 67.2432 245.539 64.3837Z" fill="#E7F34B"/>
<path d="M259.451 64.3837C259.451 60.9616 262.533 57.9146 267.054 57.9146C271.575 57.9146 274.657 60.9147 274.657 64.3837C274.657 67.8057 271.575 70.8528 267.054 70.8528C262.533 70.8528 259.451 67.8526 259.451 64.3837ZM272.911 64.3837C272.911 61.571 270.445 59.2271 267.054 59.2271C263.663 59.2271 261.197 61.5241 261.197 64.3837C261.197 67.1963 263.663 69.5402 267.054 69.5402C270.496 69.5402 272.911 67.2432 272.911 64.3837Z" fill="#E7F34B"/>
<path d="M287.291 57.9146H289.024V69.496H297.584V70.8528H287.291V57.9146Z" fill="#E7F34B"/>
</svg>
