<svg width="72" height="69" viewBox="0 0 72 69" fill="none" xmlns="http://www.w3.org/2000/svg">
<path d="M55.224 12.0956C54.3696 12.0956 53.5344 12.337 52.8239 12.7892C52.1135 13.2415 51.5598 13.8843 51.2328 14.6364C50.9059 15.3885 50.8203 16.2161 50.987 17.0145C51.1537 17.8129 51.5651 18.5463 52.1693 19.1219C52.7735 19.6975 53.5432 20.0895 54.3812 20.2483C55.2192 20.4072 56.0878 20.3256 56.8772 20.0141C57.6666 19.7026 58.3413 19.1751 58.8159 18.4982C59.2906 17.8213 59.544 17.0256 59.544 16.2115C59.544 15.1199 59.0889 14.073 58.2787 13.3011C57.4685 12.5292 56.3697 12.0956 55.224 12.0956ZM71.784 20.396C71.714 17.5502 71.1546 14.7346 70.128 12.0613C69.2126 9.77398 67.7879 7.7028 65.952 5.99031C64.1694 4.23222 61.9904 2.8834 59.58 2.04589C56.7816 1.03804 53.8231 0.492852 50.832 0.433823C47.016 0.228027 45.792 0.228027 36 0.228027C26.208 0.228027 24.984 0.228027 21.168 0.433823C18.1769 0.492852 15.2184 1.03804 12.42 2.04589C10.014 2.89188 7.83696 4.23954 6.048 5.99031C4.20273 7.68874 2.78704 9.76474 1.908 12.0613C0.850179 14.7275 0.277956 17.5463 0.216 20.396C-2.01166e-07 24.0318 0 25.1979 0 34.5273C0 43.8568 -2.01166e-07 45.0229 0.216 48.6587C0.277956 51.5084 0.850179 54.3272 1.908 56.9934C2.78704 59.2899 4.20273 61.3659 6.048 63.0644C7.83696 64.8151 10.014 66.1628 12.42 67.0088C15.2184 68.0166 18.1769 68.5618 21.168 68.6209C24.984 68.8267 26.208 68.8267 36 68.8267C45.792 68.8267 47.016 68.8267 50.832 68.6209C53.8231 68.5618 56.7816 68.0166 59.58 67.0088C61.9904 66.1713 64.1694 64.8225 65.952 63.0644C67.7961 61.3583 69.222 59.2853 70.128 56.9934C71.1546 54.3201 71.714 51.5045 71.784 48.6587C71.784 45.0229 72 43.8568 72 34.5273C72 25.1979 72 24.0318 71.784 20.396ZM65.304 48.2471C65.2778 50.4243 64.8639 52.5815 64.08 54.6267C63.5052 56.1194 62.582 57.4682 61.38 58.5712C60.2123 59.7048 58.7996 60.5826 57.24 61.1436C55.0933 61.8905 52.8292 62.2848 50.544 62.3098C46.944 62.4813 45.612 62.5156 36.144 62.5156C26.676 62.5156 25.344 62.5156 21.744 62.3098C19.3712 62.3521 17.0085 62.004 14.76 61.2808C13.2688 60.6911 11.9209 59.8155 10.8 58.7084C9.60512 57.6065 8.69344 56.2566 8.136 54.7639C7.25708 52.6894 6.7696 50.4832 6.696 48.2471C6.696 44.8171 6.48 43.5481 6.48 34.5273C6.48 25.5066 6.48 24.2375 6.696 20.8076C6.71214 18.5818 7.13862 16.376 7.956 14.2907C8.58977 12.843 9.56255 11.5525 10.8 10.5178C11.8937 9.3385 13.2454 8.40188 14.76 7.77388C16.9544 7.01944 19.2672 6.62512 21.6 6.6077C25.2 6.6077 26.532 6.4019 36 6.4019C45.468 6.4019 46.8 6.4019 50.4 6.6077C52.6852 6.63267 54.9493 7.027 57.096 7.77388C58.7319 8.35234 60.2003 9.29281 61.38 10.5178C62.5597 11.5714 63.4815 12.8595 64.08 14.2907C64.8801 16.3793 65.2942 18.5843 65.304 20.8076C65.484 24.2375 65.52 25.5066 65.52 34.5273C65.52 43.5481 65.484 44.8171 65.304 48.2471ZM36 16.9318C32.3489 16.9386 28.7819 17.9763 25.7496 19.9138C22.7172 21.8514 20.3558 24.6018 18.9635 27.8176C17.5712 31.0333 17.2106 34.5701 17.9273 37.981C18.6439 41.392 20.4056 44.524 22.9899 46.9814C25.5741 49.4387 28.8648 51.1111 32.4463 51.7873C36.0277 52.4634 39.7392 52.113 43.1117 50.7802C46.4842 49.4474 49.3664 47.1922 51.3941 44.2993C53.4218 41.4065 54.504 38.006 54.504 34.5273C54.5088 32.2125 54.0331 29.9196 53.1045 27.7805C52.1758 25.6414 50.8124 23.6984 49.0927 22.0631C47.3731 20.4279 45.331 19.1327 43.0841 18.2521C40.8371 17.3714 38.4296 16.9227 36 16.9318ZM36 45.949C33.629 45.949 31.3112 45.2791 29.3398 44.0241C27.3684 42.7691 25.8319 40.9853 24.9245 38.8982C24.0172 36.8112 23.7798 34.5147 24.2423 32.2991C24.7049 30.0835 25.8467 28.0484 27.5232 26.451C29.1998 24.8537 31.3358 23.7658 33.6613 23.3251C35.9867 22.8844 38.3971 23.1106 40.5876 23.9751C42.7781 24.8396 44.6504 26.3035 45.9677 28.1818C47.2849 30.0601 47.988 32.2683 47.988 34.5273C47.988 36.0273 47.6779 37.5125 47.0755 38.8982C46.473 40.284 45.59 41.5431 44.4768 42.6037C43.3636 43.6643 42.0421 44.5056 40.5876 45.0796C39.1332 45.6536 37.5743 45.949 36 45.949Z" fill="#FEFEFE"/>
</svg>
