<svg width="66" height="63" viewBox="0 0 66 63" fill="none" xmlns="http://www.w3.org/2000/svg">
<path d="M57.4808 34.7109C56.7543 34.7109 55.9949 34.4901 55.2684 34.3323C53.7985 34.0182 52.3531 33.607 50.9428 33.1016C49.4109 32.5691 47.7271 32.5967 46.2153 33.1793C44.7035 33.7618 43.4706 34.8581 42.7537 36.2572L42.0273 37.7087C38.8204 35.9706 35.8579 33.8499 33.2109 31.3976C30.6447 28.8681 28.4256 26.0369 26.6068 22.9723L28.1258 22.3097C29.5898 21.6247 30.7369 20.4464 31.3465 19.0017C31.9561 17.557 31.9851 15.9478 31.4278 14.4839C30.9034 13.124 30.4732 11.7325 30.14 10.3186C29.9749 9.6244 29.8428 8.89862 29.7438 8.20441C29.3428 5.98171 28.1245 3.96886 26.3084 2.52834C24.4923 1.08783 22.1976 0.314319 19.8377 0.347109H9.89858C8.50264 0.345362 7.12208 0.62558 5.84739 1.16939C4.5727 1.7132 3.43267 2.50833 2.50205 3.50265C1.55212 4.52395 0.844809 5.72967 0.428714 7.03697C0.0126199 8.34426 -0.102397 9.72215 0.0915669 11.0759C1.88651 24.2097 8.16571 36.4107 17.9555 45.7869C27.767 55.1424 40.5343 61.1431 54.2778 62.8584C54.7065 62.8897 55.137 62.8897 55.5656 62.8584C58.0006 62.8618 60.3515 62.008 62.1697 60.4602C63.2101 59.5708 64.0422 58.4814 64.6112 57.2632C65.1803 56.0451 65.4735 54.7258 65.4717 53.3917V43.9251C65.4539 41.7448 64.649 39.6371 63.1931 37.9583C61.7371 36.2795 59.7194 35.1324 57.4808 34.7109ZM59.0988 53.6442C59.0977 54.0845 59.0002 54.5198 58.8125 54.9219C58.6248 55.3241 58.3512 55.6843 58.0091 55.9793C57.6472 56.2944 57.2165 56.5286 56.7482 56.6651C56.2799 56.8015 55.7857 56.8367 55.3014 56.7682C42.9792 55.2302 31.5277 49.8638 22.7104 41.4954C13.8857 33.0621 8.22125 22.0805 6.59656 10.2555C6.52482 9.7927 6.56168 9.32044 6.70445 8.87291C6.84722 8.42539 7.09234 8.01381 7.42206 7.66796C7.7345 7.33711 8.11674 7.07326 8.54359 6.89377C8.97045 6.71429 9.43225 6.62324 9.89858 6.62664H19.8047C20.568 6.60881 21.3141 6.84432 21.9162 7.29308C22.5182 7.74185 22.9389 8.37613 23.1067 9.08796C23.1067 9.93995 23.4039 10.8235 23.602 11.6755C23.9836 13.3286 24.4913 14.9528 25.1209 16.535L20.4981 18.6177C19.7035 18.9663 19.086 19.6018 18.781 20.3848C18.4508 21.153 18.4508 22.0147 18.781 22.783C23.5333 32.5108 31.7159 40.3303 41.8952 44.8718C42.6991 45.1874 43.6008 45.1874 44.4048 44.8718C45.2241 44.5803 45.8891 43.9902 46.2539 43.2309L48.3342 38.8131C50.0377 39.4068 51.7806 39.8917 53.5514 40.2647C54.4099 40.454 55.3345 40.6118 56.226 40.738C56.9709 40.8983 57.6346 41.3004 58.1042 41.8757C58.5738 42.451 58.8202 43.1641 58.8016 43.8936L59.0988 53.6442ZM39.6168 0C38.8573 0 38.0649 0 37.3054 0C36.4296 0.0711366 35.6193 0.471817 35.0527 1.1139C34.4861 1.75598 34.2096 2.58686 34.284 3.42376C34.3585 4.26066 34.7778 5.03503 35.4496 5.57651C36.1215 6.11798 36.991 6.38222 37.8667 6.31108H39.6168C44.8713 6.31108 49.9106 8.30583 53.6261 11.8565C57.3416 15.4072 59.429 20.2229 59.429 25.2443C59.429 25.8123 59.429 26.3488 59.429 26.9168C59.3558 27.7492 59.631 28.5755 60.1942 29.2143C60.7575 29.8532 61.5629 30.2525 62.4338 30.3247H62.698C63.5246 30.3279 64.3224 30.0348 64.9338 29.5031C65.5452 28.9714 65.9256 28.2399 66 27.4532C66 26.7274 66 25.9701 66 25.2443C66 18.5546 63.2214 12.1384 58.2746 7.40504C53.3277 2.67172 46.6171 0.00836218 39.6168 0ZM46.2209 25.2443C46.2209 26.0812 46.5688 26.8839 47.188 27.4756C47.8073 28.0674 48.6471 28.3999 49.5229 28.3999C50.3986 28.3999 51.2385 28.0674 51.8578 27.4756C52.477 26.8839 52.8249 26.0812 52.8249 25.2443C52.8249 21.8967 51.4333 18.6862 48.9563 16.3191C46.4794 13.952 43.1198 12.6222 39.6168 12.6222C38.7411 12.6222 37.9012 12.9546 37.2819 13.5464C36.6627 14.1382 36.3148 14.9408 36.3148 15.7777C36.3148 16.6146 36.6627 17.4172 37.2819 18.009C37.9012 18.6008 38.7411 18.9332 39.6168 18.9332C41.3683 18.9332 43.0481 19.5982 44.2866 20.7817C45.5251 21.9653 46.2209 23.5705 46.2209 25.2443Z" fill="#FEFEFE"/>
</svg>
