<svg width="62" height="70" viewBox="0 0 62 70" fill="none" xmlns="http://www.w3.org/2000/svg">
<path d="M61.8528 26.7416C61.3407 21.6916 59.4576 16.8533 56.3867 12.6979C53.3159 8.54241 49.1619 5.21145 44.3294 3.02933C39.4969 0.847203 34.1505 -0.11171 28.8108 0.245963C23.4712 0.603637 18.3202 2.26571 13.8596 5.07033C10.0274 7.49891 6.81031 10.7018 4.43942 14.4488C2.06853 18.1958 0.602701 22.3939 0.147223 26.7416C-0.299587 31.0609 0.273675 35.4203 1.82542 39.5034C3.37716 43.5866 5.86847 47.2912 9.1186 50.3485L28.4472 68.7017C28.7862 69.0257 29.1895 69.2828 29.634 69.4583C30.0784 69.6338 30.555 69.7241 31.0365 69.7241C31.5179 69.7241 31.9946 69.6338 32.439 69.4583C32.8834 69.2828 33.2867 69.0257 33.6258 68.7017L52.8814 50.3485C56.1315 47.2912 58.6228 43.5866 60.1746 39.5034C61.7263 35.4203 62.2996 31.0609 61.8528 26.7416ZM47.7757 45.4751L31 61.3743L14.2243 45.4751C11.752 43.1318 9.8582 40.2986 8.67903 37.179C7.49986 34.0594 7.06461 30.7309 7.40456 27.4329C7.7467 24.0841 8.86975 20.8491 10.6925 17.962C12.5152 15.0748 14.9921 12.6076 17.9441 10.7387C21.8133 8.30283 26.355 7.00345 31 7.00345C35.645 7.00345 40.1867 8.30283 44.0559 10.7387C46.9989 12.6004 49.4703 15.0567 51.2927 17.9312C53.115 20.8057 54.2429 24.027 54.5954 27.3638C54.9465 30.673 54.5167 34.0148 53.3372 37.1472C52.1577 40.2795 50.2581 43.1242 47.7757 45.4751ZM31 14.1951C27.7542 14.1951 24.5813 15.1073 21.8825 16.8163C19.1837 18.5254 17.0803 20.9545 15.8382 23.7966C14.5961 26.6386 14.2711 29.7659 14.9043 32.783C15.5375 35.8001 17.1005 38.5715 19.3956 40.7467C21.6908 42.9219 24.6149 44.4033 27.7984 45.0034C30.9818 45.6035 34.2815 45.2955 37.2802 44.1183C40.279 42.9411 42.842 40.9475 44.6453 38.3898C46.4486 35.832 47.4111 32.8249 47.4111 29.7487C47.4014 25.6264 45.6693 21.6756 42.5937 18.7607C39.5181 15.8458 35.3495 14.2042 31 14.1951ZM31 38.3895C29.1968 38.3895 27.4341 37.8828 25.9347 36.9333C24.4354 35.9838 23.2668 34.6343 22.5768 33.0554C21.8867 31.4765 21.7061 29.7391 22.0579 28.0629C22.4097 26.3868 23.2781 24.8471 24.5531 23.6386C25.8282 22.4302 27.4527 21.6072 29.2213 21.2738C30.9899 20.9404 32.8231 21.1115 34.489 21.7655C36.155 22.4195 37.5789 23.5271 38.5807 24.9481C39.5825 26.369 40.1173 28.0397 40.1173 29.7487C40.1173 32.0404 39.1567 34.2382 37.4469 35.8587C35.7371 37.4792 33.418 38.3895 31 38.3895Z" fill="#FEFEFE"/>
</svg>
